<svg width="78" height="31" viewBox="0 0 78 31" fill="none" xmlns="http://www.w3.org/2000/svg">
<path d="M11.2855 0.469971H17.3055L28.5285 31H22.4225L19.5845 23.389H8.92053L6.12553 31H0.0195312L11.2855 0.469971ZM18.5095 19.218L14.2955 6.61897L9.90953 19.218H18.5095Z" fill="white"/>
<path d="M36.1772 31V0.469971H42.1112V31H36.1772Z" fill="white"/>
<path d="M52.7809 31V0.469971H66.2829C67.6875 0.469971 68.9775 0.756637 70.1529 1.32997C71.3569 1.9033 72.3889 2.6773 73.2489 3.65197C74.1375 4.62664 74.8112 5.71597 75.2699 6.91997C75.7572 8.12397 76.0009 9.35664 76.0009 10.618C76.0009 11.908 75.7715 13.155 75.3129 14.359C74.8829 15.5343 74.2522 16.5663 73.4209 17.455C72.5895 18.3436 71.6149 19.0316 70.4969 19.519L77.4629 31H70.9269L64.6489 20.766H58.7149V31H52.7809ZM58.7149 15.563H66.1539C66.8992 15.563 67.5585 15.348 68.1319 14.918C68.7052 14.4593 69.1639 13.8573 69.5079 13.112C69.8519 12.3666 70.0239 11.5353 70.0239 10.618C70.0239 9.6433 69.8232 8.79764 69.4219 8.08097C69.0205 7.33564 68.5045 6.74797 67.8739 6.31797C67.2719 5.88797 66.6125 5.67297 65.8959 5.67297H58.7149V15.563Z" fill="white"/>
</svg>
