<svg width="25" height="25" viewBox="0 0 25 25" fill="none" xmlns="http://www.w3.org/2000/svg">
<path d="M12.5578 1.88879C8.46669 1.88879 5.15039 5.20509 5.15039 9.2962C5.14933 10.3439 5.37102 11.3798 5.80075 12.3353C6.23048 13.2908 6.85844 14.1441 7.64299 14.8384C7.89706 15.0636 8.05854 15.3162 8.11706 15.5688L8.72076 18.1851H16.3948L16.9985 15.5688C17.0571 15.3169 17.2185 15.0636 17.4726 14.8384C18.2572 14.1441 18.8851 13.2908 19.3149 12.3353C19.7446 11.3798 19.9663 10.3439 19.9652 9.2962C19.9652 5.20509 16.6489 1.88879 12.5578 1.88879ZM16.0534 19.6666H9.06151L9.28151 20.6199C9.41335 21.1912 9.73497 21.701 10.1939 22.066C10.6528 22.431 11.2218 22.6296 11.8082 22.6295H13.3067C13.8929 22.6295 14.4618 22.4307 14.9205 22.0658C15.3793 21.7008 15.7008 21.1911 15.8326 20.6199L16.0534 19.6666Z" fill="white"/>
</svg>
