<svg width="33" height="37" viewBox="0 0 33 37" fill="none" xmlns="http://www.w3.org/2000/svg">
<path d="M29.4553 5.62939C29.6055 5.46248 29.6899 5.2361 29.6899 5.00006C29.6899 4.76401 29.6055 4.53763 29.4553 4.37072C29.3051 4.20381 29.1013 4.11005 28.8889 4.11005C28.6765 4.11005 28.4727 4.20381 28.3225 4.37072L24.0537 9.11561C22.8114 8.0416 21.2589 7.50869 19.6879 7.61705C18.1169 7.72541 16.6357 8.46758 15.5225 9.70406L15.0425 10.2374C14.8209 10.4834 14.6452 10.7755 14.5252 11.097C14.4053 11.4185 14.3436 11.7631 14.3436 12.1112C14.3436 12.4592 14.4053 12.8038 14.5252 13.1253C14.6452 13.4468 14.8209 13.7389 15.0425 13.9849L18.9865 18.3654C19.4345 18.0098 19.9145 17.7023 20.4185 17.4445L16.1737 12.7263C16.0271 12.563 15.9448 12.3418 15.9448 12.1112C15.9448 11.8806 16.0271 11.6594 16.1737 11.4961L16.6537 10.9627C17.4326 10.0966 18.4534 9.55039 19.5485 9.41392C20.6437 9.27744 21.748 9.55875 22.6803 10.2117C23.6125 10.8646 24.3172 11.8503 24.6788 13.007C25.0403 14.1637 25.0371 15.4226 24.6697 16.5769C25.2169 16.6161 25.7529 16.7121 26.2697 16.8578C26.5687 15.7592 26.6262 14.5969 26.4374 13.4685C26.2487 12.3401 25.8192 11.2784 25.1849 10.3725L29.4553 5.62939ZM12.9753 16.2818L16.9177 20.6641C16.5977 21.1618 16.3209 21.6952 16.0889 22.2552L11.8441 17.5405C11.7713 17.4596 11.6849 17.3954 11.5897 17.3516C11.4946 17.3079 11.3927 17.2853 11.2897 17.2853C11.1867 17.2853 11.0848 17.3079 10.9897 17.3516C10.8945 17.3954 10.8081 17.4596 10.7353 17.5405L10.2553 18.0738C9.47494 18.9389 8.9827 20.0732 8.85948 21.2903C8.73626 22.5075 8.9894 23.735 9.57729 24.771C10.1652 25.8071 11.0528 26.5901 12.0943 26.9913C13.1358 27.3925 14.2692 27.3881 15.3081 26.9787C15.3433 27.5885 15.4297 28.1823 15.5609 28.7565C14.5721 29.0887 13.5261 29.1526 12.5105 28.9428C11.4949 28.7331 10.5394 28.2559 9.7241 27.5512L5.4553 32.2961C5.30508 32.463 5.10134 32.5567 4.8889 32.5567C4.67646 32.5567 4.47272 32.463 4.3225 32.2961C4.17228 32.1291 4.08789 31.9028 4.08789 31.6667C4.08789 31.4307 4.17228 31.2043 4.3225 31.0374L8.5929 26.2943C7.62649 24.9138 7.14715 23.1886 7.24497 21.4431C7.34279 19.6975 8.01103 18.0518 9.1241 16.8152L9.6041 16.2818C10.0512 15.7852 10.6575 15.5062 11.2897 15.5062C11.9219 15.5062 12.5282 15.7852 12.9753 16.2818ZM31.2889 26.3334C31.2889 28.4551 30.5303 30.49 29.1801 31.9902C27.8298 33.4905 25.9985 34.3334 24.0889 34.3334C22.1793 34.3334 20.348 33.4905 18.9977 31.9902C17.6475 30.49 16.8889 28.4551 16.8889 26.3334C16.8889 24.2117 17.6475 22.1768 18.9977 20.6765C20.348 19.1762 22.1793 18.3334 24.0889 18.3334C25.9985 18.3334 27.8298 19.1762 29.1801 20.6765C30.5303 22.1768 31.2889 24.2117 31.2889 26.3334ZM27.8553 23.0374C27.781 22.9546 27.6927 22.8889 27.5955 22.8441C27.4983 22.7993 27.3941 22.7762 27.2889 22.7762C27.1837 22.7762 27.0795 22.7993 26.9823 22.8441C26.8851 22.8889 26.7968 22.9546 26.7225 23.0374L22.4889 27.7432L21.4553 26.5929C21.3051 26.426 21.1013 26.3323 20.8889 26.3323C20.6765 26.3323 20.4727 26.426 20.3225 26.5929C20.1723 26.7599 20.0879 26.9862 20.0879 27.2223C20.0879 27.4583 20.1723 27.6847 20.3225 27.8516L21.9225 29.6294C21.9968 29.7122 22.0851 29.7778 22.1823 29.8227C22.2795 29.8675 22.3837 29.8905 22.4889 29.8905C22.5941 29.8905 22.6983 29.8675 22.7955 29.8227C22.8927 29.7778 22.981 29.7122 23.0553 29.6294L27.8553 24.2961C27.9298 24.2135 27.9889 24.1154 28.0292 24.0074C28.0696 23.8994 28.0903 23.7836 28.0903 23.6667C28.0903 23.5498 28.0696 23.434 28.0292 23.326C27.9889 23.2181 27.9298 23.12 27.8553 23.0374Z" fill="#85B6FF"/>
</svg>
