<svg width="111" height="111" viewBox="0 0 111 111" fill="none" xmlns="http://www.w3.org/2000/svg">
<path d="M21.1911 7.45984H89.5586C97.1337 7.45984 103.232 13.5582 103.232 21.1333V89.5008C103.232 97.076 97.1337 103.174 89.5586 103.174H21.1911C13.616 103.174 7.51758 97.076 7.51758 89.5008V21.1333C7.51758 13.5582 13.616 7.45984 21.1911 7.45984Z" stroke="white" stroke-width="10.672" stroke-linecap="round" stroke-linejoin="round"/>
<path d="M28.0273 27.9701H34.8641" stroke="white" stroke-width="10.672" stroke-linecap="round" stroke-linejoin="round"/>
<path d="M41.7004 34.8069C39.8871 34.8069 38.1482 34.0866 36.866 32.8044C35.5839 31.5223 34.8636 29.7833 34.8636 27.9701C34.8636 26.1569 35.5839 24.4179 36.866 23.1358C38.1482 21.8537 39.8871 21.1334 41.7004 21.1334C42.5982 21.1334 43.4872 21.3102 44.3167 21.6538C45.1461 21.9974 45.8998 22.5009 46.5347 23.1358C47.1695 23.7707 47.6731 24.5243 48.0167 25.3538C48.3603 26.1833 48.5371 27.0723 48.5371 27.9701C48.5371 28.8679 48.3603 29.757 48.0167 30.5864C47.6731 31.4159 47.1695 32.1696 46.5347 32.8044C45.8998 33.4393 45.1461 33.9429 44.3167 34.2864C43.4872 34.63 42.5982 34.8069 41.7004 34.8069Z" stroke="white" stroke-width="10.672" stroke-linecap="round" stroke-linejoin="round"/>
<path d="M48.5371 27.9703L82.7208 27.9701" stroke="white" stroke-width="10.672" stroke-linecap="round" stroke-linejoin="round"/>
<path d="M82.7215 55.3171H75.8848" stroke="white" stroke-width="10.672" stroke-linecap="round" stroke-linejoin="round"/>
<path d="M69.0477 62.1538C70.8609 62.1538 72.5999 61.4335 73.882 60.1514C75.1641 58.8693 75.8844 57.1303 75.8844 55.3171C75.8844 53.5039 75.1641 51.7649 73.882 50.4828C72.5999 49.2006 70.8609 48.4803 69.0477 48.4803C67.2345 48.4803 65.4955 49.2006 64.2134 50.4828C62.9312 51.7649 62.2109 53.5039 62.2109 55.3171C62.2109 57.1303 62.9312 58.8693 64.2134 60.1514C65.4955 61.4335 67.2345 62.1538 69.0477 62.1538Z" stroke="white" stroke-width="10.672" stroke-linecap="round" stroke-linejoin="round"/>
<path d="M62.2111 55.3173L28.0273 55.3171" stroke="white" stroke-width="10.672" stroke-linecap="round" stroke-linejoin="round"/>
<path d="M28.0273 82.6641H34.8641" stroke="white" stroke-width="10.672" stroke-linecap="round" stroke-linejoin="round"/>
<path d="M41.7004 89.5008C39.8871 89.5008 38.1482 88.7805 36.866 87.4984C35.5839 86.2163 34.8636 84.4773 34.8636 82.6641C34.8636 80.8509 35.5839 79.1119 36.866 77.8298C38.1482 76.5476 39.8871 75.8273 41.7004 75.8273C42.5982 75.8273 43.4872 76.0042 44.3167 76.3477C45.1461 76.6913 45.8998 77.1949 46.5347 77.8298C47.1695 78.4646 47.6731 79.2183 48.0167 80.0478C48.3603 80.8772 48.5371 81.7663 48.5371 82.6641C48.5371 83.5619 48.3603 84.4509 48.0167 85.2804C47.6731 86.1099 47.1695 86.8635 46.5347 87.4984C45.8998 88.1332 45.1461 88.6368 44.3167 88.9804C43.4872 89.324 42.5982 89.5008 41.7004 89.5008Z" stroke="white" stroke-width="10.672" stroke-linecap="round" stroke-linejoin="round"/>
<path d="M48.5371 82.6643L82.7208 82.6641" stroke="white" stroke-width="10.672" stroke-linecap="round" stroke-linejoin="round"/>
</svg>
