<svg width="110" height="111" viewBox="0 0 110 111" fill="none" xmlns="http://www.w3.org/2000/svg">
<path fill-rule="evenodd" clip-rule="evenodd" d="M8.00391 26.8762V102.354H100.984V96.8845H13.4733V26.8762H8.00391Z" fill="white"/>
<path fill-rule="evenodd" clip-rule="evenodd" d="M74.9681 37.2275C74.5989 37.2366 74.2354 37.3204 73.8994 37.4738C73.5634 37.6272 73.262 37.8471 73.0134 38.1201L50.2935 63.0956L38.0902 55.1781C37.7884 54.9824 37.451 54.8481 37.0973 54.783C36.7436 54.7179 36.3805 54.7232 36.0288 54.7986C35.6771 54.874 35.3438 55.018 35.0479 55.2224C34.7519 55.4268 34.4992 55.6876 34.3042 55.9898L18.4102 80.6349V92.5089H100.982L101.058 73.4733L77.2992 38.4253C77.042 38.0465 76.6938 37.7383 76.2865 37.529C75.8792 37.3197 75.4259 37.2161 74.9681 37.2275Z" fill="white"/>
<path d="M2.96484 19.2234V16.259L11.5113 7.9214L3.57851 8.00235V4.84869H17.3986V7.54183L8.75694 15.9745L17.8865 15.8794V19.2234H2.96484Z" fill="white"/>
</svg>
