<svg width="65" height="65" viewBox="0 0 65 65" fill="none" xmlns="http://www.w3.org/2000/svg">
<rect x="1.11813" y="0.822476" width="63.0808" height="63.0808" rx="3.73505" fill="#111B52" stroke="white" stroke-width="0.83001"/>
<path d="M40.4511 31.4019H24.8613C24.3533 31.4019 23.9414 31.8137 23.9414 32.3218V32.4186C23.9414 32.9267 24.3533 33.3385 24.8613 33.3385H40.4511C40.9592 33.3385 41.371 32.9267 41.371 32.4186V32.3218C41.371 31.8137 40.9592 31.4019 40.4511 31.4019Z" fill="white"/>
<path d="M40.4511 36.2445H24.8613C24.3533 36.2445 23.9414 36.6564 23.9414 37.1644V37.2613C23.9414 37.7693 24.3533 38.1812 24.8613 38.1812H40.4511C40.9592 38.1812 41.371 37.7693 41.371 37.2613V37.1644C41.371 36.6564 40.9592 36.2445 40.4511 36.2445Z" fill="white"/>
<path d="M40.4511 26.5593H24.8613C24.3533 26.5593 23.9414 26.9712 23.9414 27.4793V27.5761C23.9414 28.0842 24.3533 28.496 24.8613 28.496H40.4511C40.9592 28.496 41.371 28.0842 41.371 27.5761V27.4793C41.371 26.9712 40.9592 26.5593 40.4511 26.5593Z" fill="white"/>
</svg>
