<svg width="110" height="111" viewBox="0 0 110 111" fill="none" xmlns="http://www.w3.org/2000/svg">
<path fill-rule="evenodd" clip-rule="evenodd" d="M33.2728 11.5618C30.3716 11.5618 27.5893 12.7143 25.5379 14.7657C23.4865 16.8172 22.334 19.5995 22.334 22.5006V88.1334C22.334 91.0346 23.4865 93.8169 25.5379 95.8683C27.5893 97.9197 30.3716 99.0722 33.2728 99.0722H77.028C79.9291 99.0722 82.7115 97.9197 84.7629 95.8683C86.8143 93.8169 87.9668 91.0346 87.9668 88.1334V41.1732C87.9662 38.2722 86.8133 35.4904 84.7617 33.4394L66.0892 14.7669C64.0382 12.7153 61.2564 11.5624 58.3555 11.5618H33.2728ZM44.2116 66.2558C44.2116 64.8053 43.6353 63.4141 42.6096 62.3884C41.5839 61.3627 40.1928 60.7864 38.7422 60.7864C37.2916 60.7864 35.9004 61.3627 34.8747 62.3884C33.849 63.4141 33.2728 64.8053 33.2728 66.2558V82.664C33.2728 84.1146 33.849 85.5058 34.8747 86.5315C35.9004 87.5572 37.2916 88.1334 38.7422 88.1334C40.1928 88.1334 41.5839 87.5572 42.6096 86.5315C43.6353 85.5058 44.2116 84.1146 44.2116 82.664V66.2558ZM55.1504 49.8476C56.601 49.8476 57.9921 50.4239 59.0178 51.4496C60.0435 52.4753 60.6198 53.8665 60.6198 55.317V82.664C60.6198 84.1146 60.0435 85.5058 59.0178 86.5315C57.9921 87.5572 56.601 88.1334 55.1504 88.1334C53.6998 88.1334 52.3086 87.5572 51.2829 86.5315C50.2572 85.5058 49.681 84.1146 49.681 82.664V55.317C49.681 53.8665 50.2572 52.4753 51.2829 51.4496C52.3086 50.4239 53.6998 49.8476 55.1504 49.8476ZM77.028 44.3782C77.028 42.9277 76.4517 41.5365 75.426 40.5108C74.4003 39.4851 73.0092 38.9088 71.5586 38.9088C70.108 38.9088 68.7168 39.4851 67.6911 40.5108C66.6654 41.5365 66.0892 42.9277 66.0892 44.3782V82.664C66.0892 84.1146 66.6654 85.5058 67.6911 86.5315C68.7168 87.5572 70.108 88.1334 71.5586 88.1334C73.0092 88.1334 74.4003 87.5572 75.426 86.5315C76.4517 85.5058 77.028 84.1146 77.028 82.664V44.3782Z" fill="white"/>
</svg>
