<svg width="856" height="143" viewBox="0 0 856 143" fill="none" xmlns="http://www.w3.org/2000/svg">
<path d="M828.842 0.710207C817.735 3.78913 811.25 14.2307 813.941 24.6723C816.493 34.1768 824.289 40 834.636 40C840.293 40 844.639 38.5275 848.502 35.1808C853.4 31.031 855.332 26.7472 855.332 20.2547C855.401 14.0299 853.745 9.94699 849.537 5.86406C844.432 0.911007 835.809 -1.23086 828.842 0.710207ZM840.983 5.1278C851.055 9.54539 853.469 24.1368 845.398 31.7672C836.085 40.6024 819.736 34.3776 818.632 21.6603C817.597 9.47846 830.014 0.308608 840.983 5.1278Z" fill="white"/>
<path d="M828.271 10.3795C826.666 10.6473 826.666 10.8482 826.666 20.6905V30.6667H829.108H831.55V26.6494C831.55 22.833 831.62 22.6322 833.224 22.6322C836.294 22.6322 837.131 23.3687 838.247 27.0512C839.294 30.5997 839.364 30.6667 842.015 30.6667H844.666L843.62 27.1181C842.992 25.2434 841.875 22.9669 841.108 22.1635L839.713 20.6235L841.526 19.2175C844.806 16.8071 843.829 11.9864 839.852 10.6473C837.689 9.91083 831.41 9.77692 828.271 10.3795ZM837.201 13.9281C837.968 14.3298 838.526 15.3341 838.526 16.2715C838.526 18.1462 836.713 19.2844 833.713 19.2844C831.62 19.2844 831.55 19.2175 831.55 16.2715C831.55 13.3255 831.62 13.2585 833.713 13.2585C834.899 13.2585 836.433 13.5933 837.201 13.9281Z" fill="white"/>
<path d="M2.41567 4.07665C1.75685 4.41026 0.933326 5.47782 0.603917 6.34521C0.164705 7.54622 0 23.226 0 59.9901V111.967L1.26274 113.768C2.36077 115.303 3.12939 115.637 5.87446 115.904C9.71757 116.237 12.3528 114.903 13.1764 112.301C13.5058 111.3 13.7254 98.2221 13.7254 80.9409V51.3162H39.1448C53.7486 51.3162 66.0465 51.583 68.0779 51.9834C72.5798 52.8508 76.2582 55.1193 77.8504 57.9884C79.0582 60.1902 79.0582 60.3904 79.0582 85.1445C79.0582 112.968 79.168 113.902 82.3523 115.303C84.8778 116.304 88.7209 116.237 90.5326 115.036C91.411 114.502 92.3993 113.168 92.7287 111.967C93.4973 109.298 93.5522 65.3279 92.7836 59.7899C91.411 49.5814 86.0856 43.7098 74.9406 40.307C71.5367 39.2394 67.6936 39.0392 42.4389 38.8391L13.7803 38.5722L13.6156 22.4921L13.4509 6.47866L11.9136 4.87732C10.6509 3.54287 9.82737 3.27598 6.97249 3.3427C5.10584 3.3427 3.01958 3.67631 2.41567 4.07665Z" fill="white"/>
<path d="M719.082 4.07665C718.423 4.41026 717.599 5.47782 717.27 6.34521C716.831 7.54622 716.666 23.226 716.666 59.9901V111.967L717.929 113.768C719.027 115.303 719.795 115.637 722.54 115.904C726.384 116.237 729.019 114.903 729.842 112.301C730.172 111.3 730.391 98.2221 730.391 80.9409V51.3162H755.811C770.415 51.3162 782.713 51.583 784.744 51.9834C789.246 52.8508 792.924 55.1193 794.516 57.9884C795.724 60.1902 795.724 60.3904 795.724 85.1445C795.724 112.968 795.834 113.902 799.018 115.303C801.544 116.304 805.387 116.237 807.199 115.036C808.077 114.502 809.065 113.168 809.395 111.967C810.163 109.298 810.218 65.3279 809.45 59.7899C808.077 49.5814 802.752 43.7098 791.607 40.307C788.203 39.2394 784.36 39.0392 759.105 38.8391L730.446 38.5722L730.282 22.4921L730.117 6.47866L728.58 4.87732C727.317 3.54287 726.493 3.27598 723.639 3.3427C721.772 3.3427 719.686 3.67631 719.082 4.07665Z" fill="white"/>
<path d="M116.827 12.2036C114.48 13.4336 113.334 15.6345 113.334 18.9359C113.334 21.1368 113.661 22.1078 114.862 23.5967C117.592 26.7686 124.251 26.8334 126.707 23.5967C128.126 21.7842 128.454 16.9292 127.308 14.793C125.506 11.621 120.43 10.3264 116.827 12.2036Z" fill="white"/>
<path d="M449.004 18.911C448.08 19.3765 447.047 20.374 446.72 21.172C446.394 21.9035 446.122 26.0928 446.122 30.7477V39.06L441.445 39.2595C437.311 39.5255 436.659 39.725 435.734 41.1214C434.266 43.3159 434.32 47.9042 435.843 49.5667C436.713 50.5641 438.018 50.8966 441.554 51.0961L446.122 51.2956V81.4193V111.609L447.427 113.471C448.678 115.2 449.004 115.333 452.866 115.333C456.401 115.333 457.162 115.134 458.196 113.804L459.447 112.274L459.61 81.7518L459.773 51.2291L472.826 51.0296C485.824 50.8301 485.933 50.8301 486.966 49.2342C487.51 48.3697 487.999 46.7073 487.999 45.5103C487.999 39.592 487.02 39.193 471.955 39.193H459.719V31.2132C459.719 21.6375 459.12 19.6425 456.02 18.6451C453.301 17.7141 451.125 17.7806 449.004 18.911Z" fill="white"/>
<path d="M115.608 39.851L114 41.8555V77.0011V112.08L115.286 113.884C116.358 115.488 117.001 115.755 119.948 115.955C124.236 116.289 126.647 114.753 127.129 111.345C127.29 110.142 127.397 93.9058 127.29 75.2639L127.129 41.3878L125.95 39.851C124.986 38.6483 123.968 38.3143 120.967 38.1138C117.43 37.8465 117.162 37.9134 115.608 39.851Z" fill="white"/>
<path d="M170.872 39.3412C159.182 41.4103 151.882 46.75 149.247 55.1601C148.314 58.0302 148.204 61.768 148.04 97.0101C147.93 123.976 148.04 136.457 148.479 138.193C149.302 141.664 151.497 142.998 155.669 142.598C158.084 142.398 159.236 141.931 160.279 140.729C161.652 139.194 161.652 139.127 161.652 127.313V115.432L190.083 115.165C221.368 114.898 222.905 114.698 230.425 110.56C235.145 107.89 238.987 103.084 240.304 98.0113C241.676 92.8718 241.676 61.1005 240.304 56.0278C237.999 47.284 230.864 41.6773 219.337 39.6082C213.465 38.4735 176.581 38.34 170.872 39.3412ZM219.941 53.1577C224.058 54.8264 226.692 57.8299 227.241 61.4343C227.406 62.6357 227.516 70.445 227.406 78.7883C227.241 95.5417 227.186 95.8087 223.18 99.146C219.722 102.016 217.636 102.216 188.93 102.483L161.597 102.75L161.761 81.3915C161.926 61.1673 161.981 59.9658 163.024 58.1637C164.506 55.7608 169.336 52.824 173.178 52.023C174.824 51.6893 185.198 51.489 196.23 51.5558C215.221 51.6893 216.428 51.756 219.941 53.1577Z" fill="white"/>
<path d="M278.635 39.7158C270.506 41.5186 265.563 45.1909 262.982 51.534L261.334 55.5401V76.0383C261.334 92.7306 261.499 97.1374 262.158 99.4743C264.684 108.088 271.825 113.028 284.128 114.764C287.313 115.165 295.168 115.432 302.637 115.299C315.49 115.098 315.654 115.098 317.027 113.496C318.95 111.292 319.005 107.353 317.192 105.15C315.929 103.614 315.654 103.547 300.825 103.213C285.226 102.813 281.821 102.345 278.855 99.8749C275.45 97.0706 274.791 95.2678 274.626 88.3238L274.406 82.0475L313.512 81.914L352.619 81.7137L353.717 80.0444C354.706 78.5755 354.761 77.574 354.596 65.6891C354.431 53.1364 354.431 52.9361 352.893 49.798C350.147 44.1894 344.819 40.7841 336.306 39.3152C330.045 38.2469 283.908 38.5808 278.635 39.7158ZM330.374 51.3337C334.878 52.0681 338.119 53.8041 339.821 56.4081C340.81 57.9438 340.975 59.0789 340.975 64.7543V71.3644H307.69H274.406L274.626 65.0214C274.791 60.0137 275.065 58.3444 275.944 56.8755C277.647 54.138 281.162 52.0014 285.061 51.4004C289.95 50.5992 325.596 50.5992 330.374 51.3337Z" fill="white"/>
<path d="M394.784 39.3481C383.155 41.4168 375.84 46.8219 373.274 55.1633C372.4 57.8992 372.291 61.436 372.073 83.6573C371.854 111.751 371.963 113.286 374.802 115.087C377.314 116.689 382.446 116.088 384.247 114.02L385.612 112.485V87.7279C385.612 72.7802 385.831 61.9698 386.158 60.5017C386.54 59.0337 387.523 57.2319 388.67 56.0308C392 52.761 395.985 51.76 408.324 51.3596C417.878 51.026 419.516 50.8258 420.444 49.7581C422.792 47.1556 422.41 41.8171 419.789 39.8819C418.26 38.7475 417.005 38.6141 407.996 38.6808C402.428 38.7475 396.477 39.0144 394.784 39.3481Z" fill="white"/>
<path d="M519.967 39.7158C511.838 41.5186 506.895 45.1909 504.314 51.534L502.666 55.5401V76.0383C502.666 92.7306 502.831 97.1374 503.49 99.4743C506.016 108.088 513.157 113.028 525.46 114.764C528.645 115.165 536.5 115.432 543.969 115.299C556.822 115.098 556.986 115.098 558.36 113.496C560.282 111.292 560.337 107.353 558.524 105.15C557.261 103.614 556.986 103.547 542.157 103.213C526.558 102.813 523.153 102.345 520.187 99.8749C516.782 97.0706 516.123 95.2678 515.958 88.3238L515.738 82.0475L554.844 81.914L593.951 81.7137L595.049 80.0444C596.038 78.5755 596.093 77.574 595.928 65.6891C595.763 53.1364 595.763 52.9361 594.225 49.798C591.479 44.1894 586.151 40.7841 577.638 39.3152C571.377 38.2469 525.24 38.5808 519.967 39.7158ZM571.706 51.3337C576.21 52.0681 579.451 53.8041 581.153 56.4081C582.142 57.9438 582.307 59.0789 582.307 64.7543V71.3644H549.022H515.738L515.958 65.0214C516.123 60.0137 516.397 58.3444 517.276 56.8755C518.979 54.138 522.494 52.0014 526.393 51.4004C531.282 50.5992 566.928 50.5992 571.706 51.3337Z" fill="white"/>
<path d="M634.793 39.4817C623.293 41.7565 616.745 46.9083 614.159 55.8069C613.499 58.1487 613.334 62.23 613.334 77.0164C613.334 93.8769 613.444 95.6164 614.489 99.0287C616.47 105.586 621.972 110.604 629.676 113.079C635.948 115.086 643.156 115.488 669.622 115.287L695.977 115.086L697.298 113.213C699.169 110.604 699.114 106.857 697.188 104.649L695.757 103.043L666.816 102.642C636.278 102.24 635.728 102.173 631.161 98.9618C627.2 96.2186 627.035 95.1481 627.2 75.879L627.365 59.1523L629.621 56.5429C633.912 51.6587 634.187 51.6587 666.871 51.2573L695.977 50.8558L697.298 48.9825C699.059 46.5069 699.059 43.1616 697.298 40.686L695.977 38.8126L667.696 38.6788C646.182 38.6119 638.369 38.8126 634.793 39.4817Z" fill="white"/>
</svg>
