<svg width="110" height="111" viewBox="0 0 110 111" fill="none" xmlns="http://www.w3.org/2000/svg">
<path d="M54.5887 82.664C56.184 82.664 57.5331 82.1125 58.6361 81.0095C59.7391 79.9065 60.2891 78.559 60.286 76.9667C60.286 75.3715 59.736 74.0224 58.6361 72.9194C57.5361 71.8164 56.187 71.2664 54.5887 71.2695C52.9935 71.2695 51.6459 71.821 50.5459 72.9239C49.446 74.0269 48.8945 75.3745 48.8914 76.9667C48.8914 78.562 49.4429 79.9111 50.5459 81.0141C51.6489 82.1171 52.9965 82.6671 54.5887 82.664ZM50.4867 65.1164H58.9187C58.9187 62.6096 59.2043 60.6345 59.7755 59.1912C60.3468 57.7479 61.9603 55.7728 64.616 53.266C66.591 51.291 68.1483 49.4101 69.2877 47.6234C70.4272 45.8367 70.9969 43.6915 70.9969 41.1878C70.9969 36.9338 69.4397 33.6673 66.3251 31.3884C63.2106 29.1095 59.5264 27.97 55.2724 27.97C50.9425 27.97 47.4299 29.1095 44.7347 31.3884C42.0395 33.6673 40.1586 36.402 39.0921 39.5925L46.6125 42.5551C46.9923 41.1878 47.8477 39.7065 49.1786 38.1112C50.5095 36.516 52.5407 35.7184 55.2724 35.7184C57.7032 35.7184 59.5264 36.3838 60.7418 37.7147C61.9572 39.0456 62.5649 40.5071 62.5649 42.0993C62.5649 43.6186 62.1091 45.0437 61.1976 46.3746C60.286 47.7055 59.1466 48.9391 57.7792 50.0755C54.4368 53.0381 52.3858 55.2791 51.6261 56.7983C50.8665 58.3176 50.4867 61.0903 50.4867 65.1164ZM54.8166 100.895C48.5116 100.895 42.5864 99.6997 37.0411 97.3084C31.4957 94.917 26.672 91.6688 22.5699 87.5637C18.4679 83.4617 15.2212 78.638 12.8299 73.0926C10.4385 67.5472 9.24132 61.622 9.23828 55.317C9.23828 49.012 10.4355 43.0869 12.8299 37.5415C15.2242 31.9961 18.4709 27.1724 22.5699 23.0704C26.672 18.9683 31.4957 15.7216 37.0411 13.3303C42.5864 10.9389 48.5116 9.74175 54.8166 9.73871C61.1216 9.73871 67.0468 10.9359 72.5922 13.3303C78.1375 15.7247 82.9612 18.9714 87.0633 23.0704C91.1653 27.1724 94.4135 31.9961 96.8079 37.5415C99.2023 43.0869 100.398 49.012 100.395 55.317C100.395 61.622 99.1978 67.5472 96.8034 73.0926C94.409 78.638 91.1623 83.4617 87.0633 87.5637C82.9612 91.6658 78.1375 94.914 72.5922 97.3084C67.0468 99.7027 61.1216 100.898 54.8166 100.895Z" fill="white"/>
</svg>
