<svg width="36" height="37" viewBox="0 0 36 37" fill="none" xmlns="http://www.w3.org/2000/svg">
<path d="M16.1555 30.5185C15.1481 30.5185 14.3828 30.2171 13.8598 29.6142C13.3367 29.0114 13.0748 28.3251 13.074 27.5556C13.074 27.042 13.1878 26.543 13.4153 26.0587C13.6429 25.5743 13.9933 25.1745 14.4666 24.8593C14.9012 24.5827 15.252 24.2272 15.519 23.7926C15.7861 23.358 15.9686 22.8938 16.0666 22.4L15.711 22.2222C15.5925 22.163 15.4839 22.0938 15.3851 22.0148L12.6592 22.9926C12.3234 23.1111 11.9975 23.2099 11.6814 23.2889C11.3654 23.3679 11.0394 23.4074 10.7036 23.4074C9.45919 23.4074 8.35776 22.8642 7.39934 21.7778C6.44092 20.6914 5.9621 19.1012 5.96289 17.0074C5.96289 16 6.26432 15.2348 6.86719 14.7117C7.47005 14.1886 8.1464 13.9267 8.89622 13.9259C9.40981 13.9259 9.91351 14.0397 10.4073 14.2673C10.9012 14.4948 11.3061 14.8452 11.6222 15.3185C11.8987 15.7531 12.2543 16.1035 12.6888 16.3698C13.1234 16.6361 13.5876 16.819 14.0814 16.9185L14.2592 16.563C14.3184 16.4445 14.3876 16.3358 14.4666 16.237L13.4888 13.5111C13.3703 13.1753 13.2715 12.8494 13.1925 12.5333C13.1135 12.2173 13.074 11.9012 13.074 11.5852C13.074 10.321 13.6172 9.20968 14.7036 8.25126C15.7901 7.29284 17.3802 6.81403 19.474 6.81482C20.4814 6.81482 21.247 7.11625 21.7709 7.71912C22.2947 8.32198 22.5563 8.99833 22.5555 9.74815C22.5555 10.2617 22.4417 10.7654 22.2142 11.2593C21.9866 11.7531 21.6362 12.158 21.1629 12.4741C20.7283 12.7506 20.3779 13.1062 20.1116 13.5407C19.8454 13.9753 19.6624 14.4395 19.5629 14.9333L19.9184 15.1111C20.037 15.1704 20.1456 15.2395 20.2444 15.3185L22.9703 14.3111C23.3061 14.1926 23.6273 14.099 23.9339 14.0302C24.2404 13.9615 24.5612 13.9267 24.8962 13.9259C26.4962 13.9259 27.6913 14.5877 28.4814 15.9111C29.2715 17.2346 29.6666 18.7062 29.6666 20.3259C29.6666 21.3333 29.3505 22.099 28.7184 22.6228C28.0863 23.1467 27.3851 23.4082 26.6147 23.4074C26.1209 23.4074 25.6417 23.2936 25.1771 23.0661C24.7125 22.8385 24.3226 22.4881 24.0073 22.0148C23.7308 21.5803 23.3752 21.2298 22.9407 20.9636C22.5061 20.6973 22.0419 20.5144 21.5481 20.4148L21.3703 20.7704C21.311 20.8889 21.2419 20.9975 21.1629 21.0963L22.1407 23.8222C22.2592 24.1383 22.358 24.4397 22.437 24.7265C22.516 25.0133 22.5555 25.3144 22.5555 25.6296C22.5752 26.9136 22.0419 28.0494 20.9555 29.037C19.8691 30.0247 18.2691 30.5185 16.1555 30.5185ZM17.8147 20.4445C18.3086 20.4445 18.7281 20.2718 19.0734 19.9265C19.4187 19.5812 19.5917 19.1613 19.5925 18.6667C19.5925 18.1728 19.4199 17.7533 19.0746 17.408C18.7293 17.0627 18.3094 16.8897 17.8147 16.8889C17.3209 16.8889 16.9014 17.0619 16.5561 17.408C16.2108 17.7541 16.0378 18.1736 16.037 18.6667C16.037 19.1605 16.21 19.5805 16.5561 19.9265C16.9022 20.2726 17.3217 20.4452 17.8147 20.4445Z" fill="white"/>
</svg>
