<svg width="110" height="111" viewBox="0 0 110 111" fill="none" xmlns="http://www.w3.org/2000/svg">
<path d="M37.0305 27.97C37.0305 17.8972 45.189 9.73871 55.2618 9.73871C65.3346 9.73871 73.4931 17.8972 73.4931 27.97C73.4931 38.0429 65.3346 46.2014 55.2618 46.2014C45.189 46.2014 37.0305 38.0429 37.0305 27.97ZM78.051 100.895H82.6088C87.6224 100.895 91.7245 96.7933 91.7245 91.7797V69.9933C91.7245 64.8885 88.9442 60.1939 84.3863 57.8694C82.4265 56.8667 80.3299 55.9096 78.051 55.0436V100.895ZM56.8115 78.1062L68.9353 52.2633C64.6965 51.3061 60.1387 50.7592 55.2618 50.7592C43.7305 50.7592 33.7944 53.9497 26.1372 57.8694C23.9133 59.0149 22.0502 60.7542 20.7549 62.8944C19.4595 65.0345 18.7826 67.4917 18.7991 69.9933V100.895H29.4645C28.4617 98.8444 27.9148 96.5199 27.9148 94.0586C27.9148 85.262 35.0706 78.1062 43.8672 78.1062H56.8115ZM46.1461 100.895L52.5727 87.2219H43.8672C40.0842 87.2219 37.0305 90.2756 37.0305 94.0586C37.0305 97.8416 40.0842 100.895 43.8672 100.895H46.1461Z" fill="white"/>
</svg>
