<svg width="64" height="50" viewBox="0 0 64 50" fill="none" xmlns="http://www.w3.org/2000/svg">
<path d="M5.56522 33.3333C3.9884 33.3333 2.66759 32.8 1.60278 31.7333C0.537971 30.6667 0.00371014 29.3481 0 27.7778V5.55556C0 3.98148 0.534261 2.66296 1.60278 1.6C2.6713 0.537038 3.99211 0.0037037 5.56522 0H22.2609C23.8377 0 25.1603 0.533334 26.2289 1.6C27.2974 2.66667 27.8298 3.98519 27.8261 5.55556V27.7778C27.8261 29.3519 27.2918 30.6722 26.2233 31.7389C25.1548 32.8056 23.834 33.337 22.2609 33.3333H5.56522ZM8.34782 25H19.4783V8.33333H8.34782V25ZM38.9565 50V36.1111C38.9565 34.537 39.4908 33.2185 40.5593 32.1556C41.6278 31.0926 42.9486 30.5593 44.5217 30.5556H55.6522V25H38.9565V16.6667H58.4348C60.0116 16.6667 61.3342 17.2 62.4028 18.2667C63.4713 19.3333 64.0037 20.6519 64 22.2222V30.5556C64 32.1296 63.4657 33.45 62.3972 34.5167C61.3287 35.5833 60.0079 36.1148 58.4348 36.1111H47.3043V41.6667H64V50H38.9565Z" fill="white"/>
</svg>
