<svg width="48" height="48" viewBox="0 0 48 48" fill="none" xmlns="http://www.w3.org/2000/svg">
<path d="M0 9.6C0 5.0736 -1.43051e-07 2.8128 1.4064 1.4064C2.8128 -1.43051e-07 5.0736 0 9.6 0C14.1264 0 16.3872 -1.43051e-07 17.7936 1.4064C19.2 2.8128 19.2 5.0736 19.2 9.6V38.4C19.2 42.9264 19.2 45.1872 17.7936 46.5936C16.3872 48 14.1264 48 9.6 48C5.0736 48 2.8128 48 1.4064 46.5936C-1.43051e-07 45.1872 0 42.9264 0 38.4V9.6ZM28.8 9.6C28.8 5.0736 28.8 2.8128 30.2064 1.4064C31.6128 -1.43051e-07 33.8736 0 38.4 0C42.9264 0 45.1872 -1.43051e-07 46.5936 1.4064C48 2.8128 48 5.0736 48 9.6V38.4C48 42.9264 48 45.1872 46.5936 46.5936C45.1872 48 42.9264 48 38.4 48C33.8736 48 31.6128 48 30.2064 46.5936C28.8 45.1872 28.8 42.9264 28.8 38.4V9.6Z" fill="white"/>
</svg>
