<svg width="33" height="37" viewBox="0 0 33 37" fill="none" xmlns="http://www.w3.org/2000/svg">
<g clip-path="url(#clip0_25424_686)">
<path d="M27.5966 13.4738C27.6896 13.5771 27.7633 13.6996 27.8135 13.8345C27.8638 13.9694 27.8897 14.1139 27.8897 14.2599C27.8897 14.4059 27.8638 14.5505 27.8135 14.6854C27.7633 14.8203 27.6896 14.9428 27.5966 15.046C27.5037 15.1493 27.3934 15.2312 27.272 15.287C27.1506 15.3429 27.0205 15.3717 26.8891 15.3717C26.7577 15.3717 26.6276 15.3429 26.5062 15.287C26.3849 15.2312 26.2746 15.1493 26.1816 15.046L23.8891 12.4974L21.5966 15.046C21.409 15.2545 21.1545 15.3717 20.8891 15.3717C20.6238 15.3717 20.3693 15.2545 20.1816 15.046C19.994 14.8376 19.8886 14.5548 19.8886 14.2599C19.8886 13.9651 19.994 13.6823 20.1816 13.4738L22.4754 10.9266L20.1816 8.37938C20.0887 8.27614 20.015 8.15359 19.9648 8.01871C19.9145 7.88382 19.8886 7.73926 19.8886 7.59327C19.8886 7.44727 19.9145 7.30271 19.9648 7.16783C20.015 7.03294 20.0887 6.91039 20.1816 6.80715C20.3693 6.59867 20.6238 6.48154 20.8891 6.48154C21.0205 6.48154 21.1506 6.51029 21.272 6.56616C21.3934 6.62203 21.5037 6.70392 21.5966 6.80715L23.8891 9.35577L26.1816 6.80715C26.2746 6.70392 26.3849 6.62203 26.5062 6.56616C26.6276 6.51029 26.7577 6.48154 26.8891 6.48154C27.0205 6.48154 27.1506 6.51029 27.272 6.56616C27.3934 6.62203 27.5037 6.70392 27.5966 6.80715C27.6896 6.91039 27.7633 7.03294 27.8135 7.16783C27.8638 7.30271 27.8897 7.44727 27.8897 7.59327C27.8897 7.73926 27.8638 7.88382 27.8135 8.01871C27.7633 8.15359 27.6896 8.27614 27.5966 8.37938L25.3029 10.9266L27.5966 13.4738ZM14.8891 26.4822C14.5925 26.4822 14.3025 26.5799 14.0558 26.763C13.8091 26.9462 13.6169 27.2065 13.5033 27.511C13.3898 27.8156 13.3601 28.1507 13.418 28.474C13.4758 28.7973 13.6187 29.0942 13.8285 29.3273C14.0383 29.5604 14.3055 29.7192 14.5965 29.7835C14.8875 29.8478 15.1891 29.8148 15.4632 29.6886C15.7373 29.5625 15.9715 29.3489 16.1363 29.0748C16.3012 28.8007 16.3891 28.4785 16.3891 28.1488C16.3891 27.7068 16.2311 27.2829 15.9498 26.9703C15.6685 26.6577 15.287 26.4822 14.8891 26.4822ZM20.4779 21.8335C18.8536 20.5219 16.8971 19.8154 14.8891 19.8154C12.8812 19.8154 10.9247 20.5219 9.30039 21.8335C9.0859 22.007 8.94222 22.2681 8.90096 22.5593C8.8597 22.8505 8.92425 23.148 9.08039 23.3863C9.23654 23.6246 9.4715 23.7843 9.73358 23.8301C9.99566 23.876 10.2634 23.8043 10.4779 23.6308C11.7598 22.5949 13.3041 22.0369 14.8891 22.0369C16.4742 22.0369 18.0185 22.5949 19.3004 23.6308C19.4066 23.7167 19.527 23.7785 19.6547 23.8127C19.7824 23.8469 19.9149 23.8528 20.0447 23.8301C20.1745 23.8074 20.299 23.7566 20.411 23.6804C20.5231 23.6043 20.6206 23.5043 20.6979 23.3863C20.7752 23.2683 20.8308 23.1345 20.8616 22.9926C20.8924 22.8507 20.8978 22.7035 20.8773 22.5593C20.8569 22.4151 20.8111 22.2768 20.7426 22.1523C20.674 22.0278 20.5841 21.9194 20.4779 21.8335ZM16.7929 8.80577C16.9254 8.82399 17.0599 8.81252 17.1884 8.77204C17.3169 8.73156 17.4369 8.66289 17.5411 8.57008C17.6453 8.47726 17.7317 8.36219 17.7953 8.23166C17.8588 8.10112 17.8982 7.95776 17.911 7.81004C17.9239 7.66233 17.91 7.51324 17.8701 7.3716C17.8303 7.22995 17.7653 7.0986 17.679 6.98531C17.5928 6.87203 17.4869 6.77909 17.3678 6.712C17.2487 6.6449 17.1186 6.605 16.9854 6.59465C16.2941 6.51965 15.5879 6.48215 14.8891 6.48215C9.91781 6.48566 5.10055 8.39937 1.25415 11.8988C1.15262 11.9915 1.06851 12.1054 1.00662 12.2342C0.944732 12.363 0.906277 12.504 0.893451 12.6493C0.880625 12.7946 0.893679 12.9413 0.931867 13.081C0.970056 13.2206 1.03263 13.3506 1.11602 13.4634C1.19941 13.5762 1.30198 13.6697 1.41787 13.7384C1.53377 13.8072 1.66072 13.8499 1.79148 13.8642C1.92223 13.8784 2.05423 13.8639 2.17995 13.8215C2.30566 13.7791 2.42262 13.7095 2.52415 13.6169C6.012 10.4428 10.3807 8.70712 14.8891 8.70438C15.5241 8.70438 16.1641 8.7391 16.7929 8.80577ZM16.7529 15.5099C17.0143 15.547 17.2783 15.4678 17.4874 15.2898C17.6966 15.1118 17.8341 14.8492 17.87 14.5591C17.9059 14.2691 17.8373 13.975 17.6792 13.7408C17.521 13.5067 17.2861 13.3513 17.0254 13.3085C16.3174 13.201 15.6037 13.1476 14.8891 13.1488C11.3933 13.1336 7.99755 14.4453 5.26414 16.8669C5.10316 17.011 4.98631 17.207 4.9297 17.4279C4.87309 17.6488 4.87949 17.8838 4.94802 18.1005C5.01655 18.3172 5.14385 18.505 5.31238 18.638C5.48092 18.771 5.68242 18.8427 5.88914 18.8433C6.11609 18.845 6.33671 18.7602 6.51414 18.603C8.89329 16.4978 11.8478 15.3576 14.8891 15.371C15.5125 15.3699 16.1352 15.4163 16.7529 15.5099Z" fill="#85B6FF"/>
</g>
<defs>
<clipPath id="clip0_25424_686">
<rect width="32" height="35.5556" fill="white" transform="translate(0.888672 0.555603)"/>
</clipPath>
</defs>
</svg>
