<svg width="71" height="49" viewBox="0 0 71 49" fill="none" xmlns="http://www.w3.org/2000/svg">
<path d="M54.4444 2.72222V46.2778C54.4444 46.9998 54.1576 47.6922 53.6471 48.2027C53.1366 48.7132 52.4442 49 51.7222 49C51.0002 49 50.3078 48.7132 49.7973 48.2027C49.2868 47.6922 49 46.9998 49 46.2778V2.72222C49 2.00024 49.2868 1.30784 49.7973 0.797321C50.3078 0.286805 51.0002 0 51.7222 0C52.4442 0 53.1366 0.286805 53.6471 0.797321C54.1576 1.30784 54.4444 2.00024 54.4444 2.72222ZM68.0556 0C67.3336 0 66.6412 0.286805 66.1307 0.797321C65.6201 1.30784 65.3333 2.00024 65.3333 2.72222V46.2778C65.3333 46.9998 65.6201 47.6922 66.1307 48.2027C66.6412 48.7132 67.3336 49 68.0556 49C68.7775 49 69.4699 48.7132 69.9805 48.2027C70.491 47.6922 70.7778 46.9998 70.7778 46.2778V2.72222C70.7778 2.00024 70.491 1.30784 69.9805 0.797321C69.4699 0.286805 68.7775 0 68.0556 0ZM38.3391 19.9607L8.33 0.854097C7.5134 0.332004 6.57161 0.0387115 5.60296 0.00484175C4.63431 -0.029028 3.67434 0.197768 2.82326 0.661548C1.97218 1.12533 1.26122 1.80909 0.764606 2.64143C0.267989 3.47377 0.00393011 4.42417 0 5.3934V43.6066C0.00221172 44.5709 0.263247 45.5169 0.755855 46.3459C1.24846 47.1749 1.95458 47.8565 2.80049 48.3194C3.65365 48.788 4.61711 49.0184 5.58995 48.9867C6.56278 48.955 7.50918 48.6622 8.33 48.1391L38.3391 29.0325C39.1037 28.5472 39.7333 27.8767 40.1695 27.0832C40.6057 26.2896 40.8345 25.3988 40.8345 24.4932C40.8345 23.5876 40.6057 22.6968 40.1695 21.9032C39.7333 21.1097 39.1037 20.4391 38.3391 19.9539V19.9607Z" fill="white"/>
</svg>
